<?xml version="1.0" encoding="UTF-8"?>
<svg xmlns="http://www.w3.org/2000/svg" xmlns:xlink="http://www.w3.org/1999/xlink" viewBox="0 0 48 48" version="1.1" width="48px" height="48px">
<g id="surface1">
<path style=" fill:#FFBA57;" d="M 33 9 L 21.003906 9 C 19.898438 9 19.003906 9.894531 19.003906 11 C 19.003906 12.105469 19.898438 13 21.003906 13 L 33 13 Z "/>
<path style=" fill:#FFBA57;" d="M 21.003906 45 C 20.144531 45 19.347656 44.441406 19.089844 43.574219 L 16.148438 33.773438 L 10 23 L 16.003906 23 L 19.761719 32.042969 C 19.824219 32.164063 19.878906 32.292969 19.921875 32.425781 L 22.921875 42.425781 C 23.238281 43.484375 22.636719 44.597656 21.578125 44.914063 C 21.386719 44.972656 21.191406 45 21.003906 45 Z "/>
<path style=" fill:#5F6EC4;" d="M 16.003906 23 L 10 23 L 15.992188 33 L 19.921875 32.425781 C 19.878906 32.292969 19.824219 32.164063 19.761719 32.042969 Z "/>
<path style=" fill:#F9A825;" d="M 20.554688 12.945313 C 20.699219 12.976563 20.847656 13 21.003906 13 L 24.464844 13 C 25.417969 11.9375 26.003906 10.535156 26.003906 9 L 24.003906 9 C 24.003906 11.019531 22.5 12.675781 20.554688 12.945313 Z "/>
<path style=" fill:#FF754C;" d="M 33.003906 13 C 33.003906 13 34.464844 14 36.003906 14 C 37.546875 14 39.003906 13.648438 39.003906 12 L 39.003906 10 C 39.003906 8.351563 37.773438 8 36.003906 8 C 34.234375 8 33.003906 9 33.003906 9 C 33.003906 9 32.003906 9.351563 32.003906 11 C 32.003906 12.648438 33.003906 13 33.003906 13 Z "/>
<path style=" fill:#E64A19;" d="M 31.003906 9 L 33.003906 9 L 33.003906 13 L 31.003906 13 Z "/>
<path style=" fill:#FFBA57;" d="M 11.003906 45 C 10.816406 45 10.621094 44.972656 10.429688 44.914063 C 9.371094 44.597656 8.769531 43.484375 9.089844 42.425781 L 11.972656 32.816406 L 9.003906 24 L 16 24 L 16 32.777344 C 16.03125 33.046875 15.996094 33.316406 15.921875 33.574219 L 12.921875 43.574219 C 12.660156 44.441406 11.863281 45 11.003906 45 Z "/>
<path style=" fill:#7E8CCF;" d="M 21.410156 9.1875 C 20.292969 7.609375 18.109375 7.234375 16.53125 8.351563 C 15.910156 8.789063 10.417969 12.929688 9.085938 22.738281 C 9.070313 22.84375 9.078125 22.949219 9.074219 23.058594 C 9.027344 23.367188 8.988281 23.441406 9.015625 23.816406 C 9.003906 23.875 8.996094 23.9375 9.003906 24 L 9.042969 24.113281 C 9.046875 24.148438 9.046875 24.171875 9.050781 24.210938 C 9.050781 24.210938 9.070313 24.207031 9.070313 24.207031 L 11.972656 33 L 16 33 L 16.003906 23 C 16.726563 16.90625 20.808594 13.148438 21.003906 13 C 22.550781 11.875 22.515625 10.753906 21.410156 9.1875 Z "/>
<path style=" fill:#E5D9C5;" d="M 9.855469 19 C 9.597656 19.929688 9.382813 20.933594 9.207031 22 L 16.160156 22 C 16.351563 20.960938 16.636719 19.996094 16.976563 19.117188 C 16.988281 19.078125 16.992188 19.039063 17.003906 19 Z "/>
<path style=" fill:#FFBA57;" d="M 21.003906 22 C 20.621094 22 20.234375 21.890625 19.894531 21.664063 L 13.894531 17.664063 C 12.976563 17.050781 12.726563 15.808594 13.339844 14.890625 C 13.953125 13.972656 15.195313 13.722656 16.113281 14.335938 L 20.617188 17.339844 L 23.164063 14.476563 L 26.238281 17.035156 L 22.542969 21.277344 C 22.148438 21.75 21.578125 22 21.003906 22 Z "/>
<path style=" fill:#FF754C;" d="M 26.238281 17.035156 C 26.238281 17.035156 27.941406 16.5625 28.9375 15.382813 C 29.929688 14.203125 30.601563 12.863281 29.339844 11.800781 L 27.808594 10.511719 C 26.546875 9.449219 25.484375 10.164063 24.347656 11.519531 C 23.207031 12.875 23.179688 14.460938 23.179688 14.460938 C 23.179688 14.460938 22.804688 15.449219 24.066406 16.511719 C 25.328125 17.574219 26.238281 17.035156 26.238281 17.035156 Z "/>
<path style=" fill:#E64A19;" d="M 21.890625 15.988281 L 23.179688 14.460938 L 26.238281 17.035156 L 24.953125 18.566406 Z "/>
<path style=" fill:#FFBA57;" d="M 24.003906 9 C 24.003906 11.210938 22.214844 13 20.003906 13 C 17.792969 13 16.003906 11.210938 16.003906 9 C 16.003906 6.789063 17.792969 5 20.003906 5 C 22.214844 5 24.003906 6.789063 24.003906 9 Z "/>
</g>
</svg>
