<?xml version="1.0" encoding="utf-8"?>
<!-- Generator: Adobe Illustrator 21.0.2, SVG Export Plug-In . SVG Version: 6.00 Build 0)  -->
<svg xmlns="http://www.w3.org/2000/svg" xmlns:xlink="http://www.w3.org/1999/xlink" version="1.1" id="Layer_1" x="0px" y="0px" viewBox="0 0 48 48" style="enable-background:new 0 0 48 48;" xml:space="preserve" width="48px" height="48px">
<path style="fill:#FFBA57;" d="M20.7,30.8c-0.2,0-0.5-0.1-0.7-0.2l-5.7-2.3c-0.1-0.1-0.3-0.2-0.4-0.3L8,24l2-3l5.9,4.8l5.4,2.2  c0.7,0.4,1,1.3,0.7,2C21.7,30.5,21.2,30.8,20.7,30.8z"/>
<path style="fill:#E64A19;" d="M14.3,28.3c-0.1-0.1-0.3-0.2-0.4-0.3L8,24l2-3l5.9,4.8L14.3,28.3z"/>
<path style="fill:#5EC08F;" d="M46,9h-0.3c-0.6,0-1.1,0.2-1.5,0.5C43.8,9.7,43.4,9.9,43,10H29c0,10,0,17,0,17.5  c0,1.8-0.7,3.6-2.4,4.2c-0.5,0.2-1,0.3-1.6,0.3H1v7h34.7c1.8,0,3.3-0.7,4.5-1.8c2.3-2.1,2.4-5.6,0.6-8.1C39.7,27.7,37,24.8,37,20  c0-2.6,3-3,6-3c1.6,0,3,2,3,2v-3c0-0.6-0.4-1.1-1-1.2l0-1.1c1.2-0.3,2-1.4,2-2.7v-1C47,10,47,9,46,9z"/>
<path style="fill:#7E8CCF;" d="M4,36c0,0,1,2,4,2s4-2,4-2s1,2,4,2s4-2,4-2s1,2,4,2s4-2,4-2s1,2,4,2s4-2,4-2s1,2,4,2s4-2,4-2  s0.8,1.5,3,1.9V44H1v-6.1C3.2,37.5,4,36,4,36z"/>
<path style="fill:#FFBA57;" d="M10.5,11c1.9,0,3.5,1.6,3.5,3.5c0,1.9-1.6,3.5-3.5,3.5S7,16.4,7,14.5C7,12.6,8.6,11,10.5,11"/>
<rect x="8.7" y="28.1" transform="matrix(8.789381e-02 -0.9961 0.9961 8.789381e-02 -9.0249 48.2804)" style="fill:#455A64;" width="26.2" height="2"/>
<path style="fill:#FFBA57;" d="M7.9,20.5l8.2-1.6l5.6-3.7c0.7-0.4,1.6-0.1,2,0.6c0.4,0.7,0.1,1.6-0.6,2l-5.8,3.8  c-0.1,0.1-0.3,0.1-0.4,0.2L9,25L7.9,20.5z"/>
<path style="fill:#FF754C;" d="M1,32l3.8-9.8C5.3,20.9,6.6,20,7.9,20c0.2,0,1.6,0,2.7,0l5.5-1.1l1.2,2.7c-0.1,0.1-0.3,0.1-0.4,0.2  L11.6,24c0,0.1-0.1,0.2-0.1,0.3L8,32H1z"/>
<path style="fill:#C5CAE9;" d="M4,38c0,0,1,2,4,2s4-2,4-2s1,2,4,2s4-2,4-2s1,2,4,2s4-2,4-2s1,2,4,2s4-2,4-2s1,2,4,2s4-2,4-2  s0.8,1.5,3,1.9V44H1v-4.1C3.2,39.5,4,38,4,38z"/>
<path style="fill:#41A571;" d="M32,14c0-1.7,1.3-3,3-3h4c0.5,0,1-0.4,1-1V9c0-1.1-0.9-2-2-2h-7c-4,0-7-2-7-2s1,4,5,5c0,0-2,2-6,2  c0,0,2,3,6,3c0,3-3,4-3,4s4.8,2.8,7-1c0,4-1,5-1,5s4,0,5.3-4c0.3-0.9,1.7-2,5.7-2h-8C33.3,17,32,15.7,32,14z"/>
<path style="fill:#FF3D00;" d="M46,15h-7c-0.5,0-1-0.4-1-1l0,0c0-0.6,0.5-1,1-1h7c0.5,0,1,0.4,1,1l0,0C47,14.6,46.5,15,46,15z"/>
<path style="fill:#FFEA00;" d="M35,11c0,0,2,0,2.5,0l0-2C35,9,35,11,35,11z"/>
<path style="fill:#212121;" d="M37,10c0,0.6,0.5,1,0.5,1s0.5-0.4,0.5-1s-0.5-1-0.5-1S37,9.4,37,10z"/>
<path style="fill:#263238;" d="M45,12c0,0,1.2,0,1.8,0c0.1-0.3,0.2-0.6,0.2-1v-1C46,10,45,12,45,12z"/>
</svg>
