<?xml version="1.0" encoding="utf-8"?>
<!-- Generator: Adobe Illustrator 21.0.2, SVG Export Plug-In . SVG Version: 6.00 Build 0)  -->
<svg xmlns="http://www.w3.org/2000/svg" xmlns:xlink="http://www.w3.org/1999/xlink" version="1.1" id="Layer_1" x="0px" y="0px" viewBox="0 0 48 48" style="enable-background:new 0 0 48 48;" xml:space="preserve" width="48px" height="48px">
<g id="surface1">
	<polygon style="fill:#90A4AE;" points="22.6,33.2 16.4,18.9 34.7,3.6 35.3,4.4 17.6,19.1 23.5,32.8  "/>
	<path style="fill:#FFBA57;" d="M7,13c-1.7,0-3,1.3-3,3s1.3,3,3,3s3-1.3,3-3S8.7,13,7,13"/>
	<path style="fill:#FF754C;" d="M20.6,34.4l-4-5c-0.3-0.3-0.7-0.4-1.1-0.4H12c0-0.2-0.1-0.3-0.2-0.5L10,24h2.5   c0.3,0,0.6-0.1,0.9-0.3l4-3c0.7-0.5,0.8-1.4,0.3-2.1c-0.5-0.7-1.4-0.8-2.1-0.3L12,21H6.7c0,0,0,0-0.1,0H5.5C4.7,21,4,21.7,4,22.5   c0,0.1,0,0.2,0,0.3c0,0.4,0.1,1,0.4,1.7l2.8,6c0.3,0.8,1.1,1.3,1.9,1.5C9.3,32,9.4,32,9.5,32h5.4l3.5,4.6c0.3,0.3,0.7,0.4,1.1,0.4   s0.8-0.1,1.1-0.4C21.1,36,21.1,35,20.6,34.4z"/>
	<path style="fill:#E0DDDC;" d="M23,34C22.1,15,35,3,35,3s3.5,3.3,9,26L23,34z"/>
	<path style="fill:#5EC08F;" d="M34.7,39c1.6-2.7,3.4-7,3.4-7H11c0,2.9,0.6,5.4,1.2,7H34.7z"/>
	<path style="fill:#7E8CCF;" d="M44,38c-3,0-4-2-4-2s-1,2-4,2s-4-2-4-2s-1,2-4,2s-4-2-4-2s-1,2-4,2s-4-2-4-2s-1,2-4,2s-4-2-4-2   s-1,2-4,2v6h40V38z"/>
	<path style="fill:#C5CAE9;" d="M44,40c-3,0-4-2-4-2s-1,2-4,2s-4-2-4-2s-1,2-4,2s-4-2-4-2s-1,2-4,2s-4-2-4-2s-1,2-4,2s-4-2-4-2   s-1,2-4,2v4h40V40z"/>
	<path style="fill:#E64A19;" d="M10,24H8l2,5h2L10,24z"/>
</g>
</svg>
