<?xml version="1.0" encoding="utf-8"?>
<!-- Generator: Adobe Illustrator 21.0.2, SVG Export Plug-In . SVG Version: 6.00 Build 0)  -->
<svg xmlns="http://www.w3.org/2000/svg" xmlns:xlink="http://www.w3.org/1999/xlink" version="1.1" id="Layer_1" x="0px" y="0px" viewBox="0 0 48 48" style="enable-background:new 0 0 48 48;" xml:space="preserve" width="48px" height="48px">
<g id="surface1">
	<path style="fill:#607D8B;" d="M13,34c0,0.6-0.4,1-1,1s-1-0.4-1-1s0.4-1,1-1S13,33.4,13,34z"/>
	<path style="fill:#607D8B;" d="M37,34c0,0.6-0.4,1-1,1s-1-0.4-1-1s0.4-1,1-1S37,33.4,37,34z"/>
	<path style="fill:#FFBA57;" d="M39.5,18h-6.2l-3.7-5.2c0-0.1-0.1-0.2-0.1-0.2c-1.1-1.6-3.2-2-4.9-1l-8,6c-1.6,1.1-2,3.2-1,4.9   c0.2,0.3,0.5,0.6,0.7,0.8c0,0,0.1,0.1,0.1,0.1l0.3,0.2c0.1,0,0.1,0.1,0.2,0.1l5.9,3.3L22,34.8c-0.1,1.1,0.7,2.1,1.8,2.2   c0.1,0,0.2,0,0.2,0c1,0,1.9-0.8,2-1.8l1-9c0.1-0.7-0.2-1.4-0.8-1.8l-3.5-2.7l5.6-4.2l2.9,2.9c0.3,0.4,0.7,0.6,1.2,0.6h7   c0.8,0,1.5-0.7,1.5-1.5S40.3,18,39.5,18z"/>
	<path style="fill:#FFBA57;" d="M33.5,6C35.4,6,37,7.6,37,9.5S35.4,13,33.5,13S30,11.4,30,9.5S31.6,6,33.5,6"/>
	<path style="fill:#B0BEC5;" d="M12,42c-4.4,0-8-3.6-8-8s3.6-8,8-8s8,3.6,8,8S16.4,42,12,42z M12,28c-3.3,0-6,2.7-6,6s2.7,6,6,6   s6-2.7,6-6S15.3,28,12,28z"/>
	<path style="fill:#B0BEC5;" d="M36,42c-4.4,0-8-3.6-8-8s3.6-8,8-8s8,3.6,8,8S40.4,42,36,42z M36,28c-3.3,0-6,2.7-6,6s2.7,6,6,6   s6-2.7,6-6S39.3,28,36,28z"/>
	<path style="fill:#2D4C5C;" d="M22.7,21.7l-6.2-4.1c-1.6,1.1-2,3.2-1,4.9c0.2,0.3,0.5,0.6,0.7,0.8c0,0,0.1,0.1,0.1,0.1l0.3,0.2   c0.1,0,0.1,0.1,0.2,0.1l5.5,3.1l3.8-2.3c0,0,0,0-0.1-0.1L22.7,21.7z"/>
	<path style="fill:#9575CD;" d="M29.5,12.8c0-0.1-0.1-0.2-0.1-0.2c-1.1-1.6-3.2-2-4.9-1l-8,6l6.2,4.1l5.6-4.2l2.6,2.6l0-0.1l2.2-2.2   L29.5,12.8z"/>
</g>
</svg>
