<?xml version="1.0" encoding="utf-8"?>
<!-- Generator: Adobe Illustrator 21.0.2, SVG Export Plug-In . SVG Version: 6.00 Build 0)  -->
<svg xmlns="http://www.w3.org/2000/svg" xmlns:xlink="http://www.w3.org/1999/xlink" version="1.1" id="Layer_1" x="0px" y="0px" viewBox="0 0 48 48" style="enable-background:new 0 0 48 48;" xml:space="preserve" width="48px" height="48px">
<g id="surface1">
	<path style="fill:#D6D1D0;" d="M38,9.8l1.4,1.4L21.7,28.9l-1.4-1.4L38,9.8z"/>
	<path style="fill:#D6D1D0;" d="M40.1,13.3l1.4,1.4L25.3,31l-1.4-1.4L40.1,13.3z"/>
	<path style="fill:#D6D1D0;" d="M19.6,25.4l-1.4-1.4L34.5,7.7l1.4,1.4L19.6,25.4z"/>
	<path style="fill:#D6D1D0;" d="M26.9,10.1l12.7,12.7l-1.4,1.4L25.5,11.5L26.9,10.1z"/>
	<path style="fill:#D6D1D0;" d="M35.4,27L22.7,14.3l1.4-1.4l12.7,12.7L35.4,27z"/>
	<path style="fill:#D6D1D0;" d="M32.6,29.9L19.9,17.1l1.4-1.4L34,28.4L32.6,29.9z"/>
	<path style="fill:#C93D18;" d="M14.4,36L13,34.6c4.1-4.1,7.8-4.3,11.3-4.6c3.6-0.3,7.3-0.5,12.1-4.6l1.3,1.5   c-5.3,4.5-9.5,4.8-13.2,5.1C20.9,32.3,17.9,32.5,14.4,36z"/>
	<path style="fill:#C93D18;" d="M14.4,36L13,34.6c3.6-3.6,3.8-6.6,4-10c0.3-3.7,0.6-8,5.1-13.2l1.5,1.3c-4.1,4.8-4.4,8.5-4.6,12.1   C18.7,28.3,18.5,32,14.4,36z"/>
	<path style="fill:#FF754C;" d="M33.5,9c1.3,0,3.3,0.3,4.7,1.8c1.4,1.4,2,3.6,1.7,6.1c-0.4,2.8-1.9,5.6-4.2,7.9   c-2.7,2.7-6.1,4.3-9.2,4.3c-1.3,0-3.3-0.3-4.7-1.8c-1.4-1.4-2-3.6-1.7-6.1c0.4-2.8,1.9-5.6,4.2-7.9C26.9,10.6,30.4,9,33.5,9    M33.5,6c-3.8,0-8,1.8-11.4,5.1c-5.7,5.7-6.8,13.9-2.5,18.2c1.8,1.8,4.2,2.6,6.8,2.6c3.8,0,8-1.8,11.4-5.1   c5.7-5.7,6.8-13.9,2.5-18.2C38.6,6.9,36.1,6,33.5,6z"/>
	<path style="fill:#37474F;" d="M9,43H7l-1-1v-2l6-6l1.5,0l1.5,1.5V37L9,43z"/>
	<path style="fill:#546E7A;" d="M11.1,34.9l-1.4,1.4l3,3l1.4-1.4L11.1,34.9z"/>
	<path style="fill:#546E7A;" d="M9.8,42.1l1.4-1.4l-3-3l-1.4,1.4L9.8,42.1z"/>
	<path style="fill:#5EC08F;" d="M18,12c0,3.9-3.1,7-7,7s-7-3.1-7-7s3.1-7,7-7S18,8.1,18,12z"/>
	<path style="fill:#BBFFD6;" d="M17.9,10.9c-1.5,0-3-0.6-4.1-1.7c-1.1-1.1-1.7-2.6-1.7-4.1c-0.7-0.1-1.3-0.1-2,0c0,2,0.8,4,2.3,5.5   c1.5,1.5,3.5,2.3,5.5,2.3C18,12.3,18,11.6,17.9,10.9z"/>
	<path style="fill:#BBFFD6;" d="M9.6,13.4c-1.5-1.5-3.5-2.3-5.5-2.3c-0.1,0.7-0.1,1.3,0,2c1.5,0,2.9,0.6,4.1,1.8s1.7,2.6,1.8,4.1   c0.7,0.1,1.3,0.1,2,0C11.9,16.9,11.1,14.9,9.6,13.4z"/>
</g>
</svg>
