<?xml version="1.0" encoding="UTF-8"?>
<svg xmlns="http://www.w3.org/2000/svg" xmlns:xlink="http://www.w3.org/1999/xlink" viewBox="0 0 48 48" version="1.1" width="48px" height="48px">
<g id="surface1">
<path style=" fill:#BA68C8;" d="M 23 46.003906 C 22.207031 46.003906 21.457031 45.523438 21.144531 44.742188 C 19.023438 39.445313 19 26.546875 19 26 C 19 24.894531 19.894531 24 21 24 C 22.105469 24 25 23.894531 25 25 C 25 26.820313 22.71875 32.3125 23.875 39.1875 C 24.148438 40.816406 24.453125 42.253906 24.855469 43.257813 C 25.265625 44.285156 24.769531 45.449219 23.742188 45.859375 C 23.5 45.953125 23.246094 46.003906 23 46.003906 Z "/>
<path style=" fill:#FFB74D;" d="M 24 6 C 26.210938 6 28 7.789063 28 10 C 28 12.207031 26.210938 14 24 14 C 21.789063 14 20 12.207031 20 10 C 20 7.789063 21.789063 6 24 6 "/>
<path style=" fill:#BA68C8;" d="M 27 37 C 26.414063 37 25.832031 36.742188 25.4375 36.25 C 24.746094 35.386719 24.886719 34.128906 25.75 33.4375 L 28.863281 30.949219 L 24 28 C 23.160156 27.28125 22.761719 24.539063 23.480469 23.699219 C 24.199219 22.859375 26.164063 22.28125 27 23 L 33.300781 29.480469 C 33.753906 29.871094 34.011719 30.4375 34 31.035156 C 33.988281 31.632813 33.714844 32.191406 33.25 32.5625 L 28.25 36.5625 C 27.882813 36.855469 27.4375 37 27 37 Z "/>
<path style=" fill:#FFB74D;" d="M 22 20 L 19 20 L 13.996094 11.789063 C 13.75 11.355469 13.734375 10.824219 13.957031 10.375 L 18.15625 2.828125 C 18.527344 2.089844 19.429688 1.789063 20.171875 2.15625 C 20.910156 2.527344 21.210938 3.429688 20.839844 4.171875 L 17 11 L 22 17 Z "/>
<path style=" fill:#FFB74D;" d="M 26 20 L 29 20 L 34.003906 11.789063 C 34.25 11.355469 34.265625 10.824219 34.042969 10.375 L 29.972656 2.730469 C 29.601563 1.992188 28.699219 1.691406 27.960938 2.0625 C 27.21875 2.433594 26.917969 3.332031 27.289063 4.074219 L 31 11 L 26 17 Z "/>
<path style=" fill:#FF66A1;" d="M 29 25 L 19 27 L 19 20 C 20.105469 20 21 19.105469 21 18 L 21 16 L 27 16 L 27 18 C 27 19.105469 27.894531 20 29 20 Z "/>
</g>
</svg>
